# xmcd
#
# Track frame offsets:
#	182
#	14067
#	25872
#	39302
#	52520
#	67837
#	81292
#	93715
#	105745
#	118422
#
# Disc length: 1724
#
# Revision: 3
# Processed by: cddbd v1.5.1PL0 Copyright (c) Steve Scherf et al.
# Submitted via: CDValet v3.31 - Copyright (c) 1997 Greg Leichner
# Normalized: r1:DSETVAR1,TDELIM( - ),TSWAP
#
DISCID=7b06ba0a
DTITLE=Various Artist - 25 Years Of R&B (1966)
DYEAR=1900
DGENRE=
TTITLE0=Eddie Floyd - Knock On Wood
TTITLE1=Sam and Dave - Hold On! I'm Comin'
TTITLE2=Wilson Pickett - 634-5789 (Soulsville, USA)
TTITLE3=Carla Thomas - B-A-B-Y
TTITLE4=Otis Redding - Try A Little Tenderness
TTITLE5=Percy Sledge - When A Man Loves A Woman
TTITLE6=The Capitols - Cool Jerk
TTITLE7=Joe Tex - A Sweet Woman Like You
TTITLE8=J.J. Jackson - But It's Alright
TTITLE9=Wilson Pickett - Land Of 1000 Dances
EXTD=
EXTT0=
EXTT1=
EXTT2=
EXTT3=
EXTT4=
EXTT5=
EXTT6=
EXTT7=
EXTT8=
EXTT9=
PLAYORDER=
